<?xml version="1.0" standalone="no"?>
<!DOCTYPE svg PUBLIC "-//W3C//DTD SVG 20010904//EN"
 "http://www.w3.org/TR/2001/REC-SVG-20010904/DTD/svg10.dtd">
<svg version="1.0" xmlns="http://www.w3.org/2000/svg"
 width="512.000000pt" height="512.000000pt" viewBox="0 0 512.000000 512.000000"
 preserveAspectRatio="xMidYMid meet">
<metadata>
Created by potrace 1.11, written by Peter Selinger 2001-2013
</metadata>
<g transform="translate(0.000000,512.000000) scale(0.100000,-0.100000)"
fill="#000000" stroke="none">
<path d="M115 5106 c-40 -17 -84 -63 -101 -103 -12 -27 -14 -430 -14 -2427 l0
-2394 28 -29 c73 -78 112 -124 112 -133 0 -7 801 -10 2430 -10 l2430 0 34 22
c18 12 44 38 57 57 l24 35 3 2410 c1 1326 0 2426 -3 2444 -8 42 -59 100 -110
123 -38 18 -140 19 -2450 18 -1976 0 -2415 -2 -2440 -13z"/>
</g>
</svg>
